<?xml version="1.0" encoding="UTF-8"?>
<svg version="1.1" xmlns="http://www.w3.org/2000/svg" width="310" height="310">
<path d="M0 0 C0.88494141 -0.00773438 1.76988281 -0.01546875 2.68164062 -0.0234375 C7.19820007 -0.00988443 10.84167154 0.10416056 14.9375 2.25 C14.9375 2.91 14.9375 3.57 14.9375 4.25 C15.7625 4.4975 16.5875 4.745 17.4375 5 C21.46123471 6.43704811 25.15729024 8.27354515 28.9375 10.25 C28.9375 10.91 28.9375 11.57 28.9375 12.25 C29.48921875 12.36214844 30.0409375 12.47429688 30.609375 12.58984375 C33.33815211 13.36360773 35.66522943 14.51817694 38.1875 15.8125 C39.07953125 16.26753906 39.9715625 16.72257812 40.890625 17.19140625 C41.56609375 17.54074219 42.2415625 17.89007812 42.9375 18.25 C42.9375 18.91 42.9375 19.57 42.9375 20.25 C43.9275 20.25 44.9175 20.25 45.9375 20.25 C45.9375 20.91 45.9375 21.57 45.9375 22.25 C47.5875 22.58 49.2375 22.91 50.9375 23.25 C50.9375 23.91 50.9375 24.57 50.9375 25.25 C51.68 25.37375 52.4225 25.4975 53.1875 25.625 C55.73891485 26.20486701 57.6642573 26.98708739 59.9375 28.25 C59.9375 28.91 59.9375 29.57 59.9375 30.25 C61.5875 30.58 63.2375 30.91 64.9375 31.25 C64.9375 31.91 64.9375 32.57 64.9375 33.25 C65.494375 33.37375 66.05125 33.4975 66.625 33.625 C69.15864364 34.30976855 71.51671032 35.24133763 73.9375 36.25 C73.9375 36.91 73.9375 37.57 73.9375 38.25 C75.5875 38.58 77.2375 38.91 78.9375 39.25 C78.9375 39.91 78.9375 40.57 78.9375 41.25 C79.494375 41.37375 80.05125 41.4975 80.625 41.625 C83.15864364 42.30976855 85.51671032 43.24133763 87.9375 44.25 C87.9375 44.91 87.9375 45.57 87.9375 46.25 C89.5875 46.58 91.2375 46.91 92.9375 47.25 C92.9375 47.91 92.9375 48.57 92.9375 49.25 C94.2575 49.25 95.5775 49.25 96.9375 49.25 C96.9375 49.91 96.9375 50.57 96.9375 51.25 C98.5875 51.58 100.2375 51.91 101.9375 52.25 C101.9375 52.91 101.9375 53.57 101.9375 54.25 C102.576875 54.4975 103.21625 54.745 103.875 55 C107.93738351 56.65811572 111.93474906 58.4535584 115.9375 60.25 C115.9375 60.91 115.9375 61.57 115.9375 62.25 C116.52917969 62.40855469 117.12085938 62.56710938 117.73046875 62.73046875 C123.00210936 64.28702169 126.40571205 65.8067829 129.9375 70.25 C129.9375 70.91 129.9375 71.57 129.9375 72.25 C130.9275 72.58 131.9175 72.91 132.9375 73.25 C132.9375 73.91 132.9375 74.57 132.9375 75.25 C133.5975 75.25 134.2575 75.25 134.9375 75.25 C134.9375 75.91 134.9375 76.57 134.9375 77.25 C135.5975 77.25 136.2575 77.25 136.9375 77.25 C137.2675 79.23 137.5975 81.21 137.9375 83.25 C138.5975 83.25 139.2575 83.25 139.9375 83.25 C140.79756456 86.96802906 141.06309789 90.40245608 141.06448364 94.21522522 C141.06730347 95.41112778 141.07012329 96.60703033 141.07302856 97.83917236 C141.06999222 99.79448883 141.06999222 99.79448883 141.06689453 101.78930664 C141.06825026 103.18255153 141.07003115 104.57579606 141.07220459 105.96903992 C141.07675812 109.74576042 141.07499802 113.52245357 141.0718255 117.29917455 C141.06929167 121.2531156 141.07164225 125.20705433 141.07321167 129.16099548 C141.07503016 135.79947327 141.07263523 142.43793992 141.06787109 149.07641602 C141.06242685 156.75120086 141.0641936 164.42595915 141.0696975 172.10074335 C141.07423508 178.69193724 141.07487608 185.28312312 141.07225883 191.87431806 C141.0706999 195.81024482 141.07049184 199.74615909 141.07379532 203.68208504 C141.07668345 207.38141308 141.07468096 211.08070686 141.06890106 214.7800312 C141.06694773 216.78547239 141.06991921 218.79091647 141.07302856 220.7963562 C141.06879883 222.5859803 141.06879883 222.5859803 141.06448364 224.41175842 C141.06410662 225.44873399 141.06372959 226.48570955 141.06334114 227.55410862 C140.95147656 229.95058048 140.62612821 231.9617125 139.9375 234.25 C139.2775 234.25 138.6175 234.25 137.9375 234.25 C137.6075 236.23 137.2775 238.21 136.9375 240.25 C136.2775 240.25 135.6175 240.25 134.9375 240.25 C134.56625 241.3946875 134.56625 241.3946875 134.1875 242.5625 C132.81619328 245.51080945 131.7023921 246.60834532 128.9375 248.25 C128.2775 248.25 127.6175 248.25 126.9375 248.25 C126.9375 248.91 126.9375 249.57 126.9375 250.25 C125.2875 250.58 123.6375 250.91 121.9375 251.25 C121.9375 251.91 121.9375 252.57 121.9375 253.25 C116.1875 256.25 116.1875 256.25 113.9375 256.25 C113.9375 256.91 113.9375 257.57 113.9375 258.25 C113.256875 258.4975 112.57625 258.745 111.875 259 C109.51559552 260.00400191 107.49835591 261.06627098 105.3125 262.375 C101.9375 264.25 101.9375 264.25 98.9375 264.25 C98.9375 264.91 98.9375 265.57 98.9375 266.25 C97.2875 266.58 95.6375 266.91 93.9375 267.25 C93.9375 267.91 93.9375 268.57 93.9375 269.25 C92.9475 269.25 91.9575 269.25 90.9375 269.25 C90.9375 269.91 90.9375 270.57 90.9375 271.25 C89.2875 271.58 87.6375 271.91 85.9375 272.25 C85.9375 272.91 85.9375 273.57 85.9375 274.25 C82.96338876 275.48921302 80.08487182 276.55058404 76.9375 277.25 C76.9375 277.91 76.9375 278.57 76.9375 279.25 C71.3125 282.25 71.3125 282.25 67.9375 282.25 C67.9375 282.91 67.9375 283.57 67.9375 284.25 C66.2875 284.58 64.6375 284.91 62.9375 285.25 C62.9375 285.91 62.9375 286.57 62.9375 287.25 C57.1875 290.25 57.1875 290.25 54.9375 290.25 C54.9375 290.91 54.9375 291.57 54.9375 292.25 C52.9575 292.58 50.9775 292.91 48.9375 293.25 C48.9375 293.91 48.9375 294.57 48.9375 295.25 C43.1875 298.25 43.1875 298.25 40.9375 298.25 C40.9375 298.91 40.9375 299.57 40.9375 300.25 C38.9575 300.58 36.9775 300.91 34.9375 301.25 C34.9375 301.91 34.9375 302.57 34.9375 303.25 C29.3125 306.25 29.3125 306.25 25.9375 306.25 C25.9375 306.91 25.9375 307.57 25.9375 308.25 C17.93120162 310.56374678 10.05885138 310.55545339 1.79931641 310.51074219 C-0.55722791 310.50002398 -2.91301011 310.51068098 -5.26953125 310.5234375 C-12.76354503 310.52937759 -19.80587605 310.34709775 -27.0625 308.25 C-27.0625 307.59 -27.0625 306.93 -27.0625 306.25 C-31.5175 304.765 -31.5175 304.765 -36.0625 303.25 C-36.0625 302.59 -36.0625 301.93 -36.0625 301.25 C-37.7125 300.92 -39.3625 300.59 -41.0625 300.25 C-41.0625 299.59 -41.0625 298.93 -41.0625 298.25 C-41.64 298.12625 -42.2175 298.0025 -42.8125 297.875 C-45.08585767 297.24351176 -46.9878529 296.36141809 -49.0625 295.25 C-49.0625 294.59 -49.0625 293.93 -49.0625 293.25 C-51.0425 292.92 -53.0225 292.59 -55.0625 292.25 C-55.0625 291.59 -55.0625 290.93 -55.0625 290.25 C-55.64 290.12625 -56.2175 290.0025 -56.8125 289.875 C-59.08585767 289.24351176 -60.9878529 288.36141809 -63.0625 287.25 C-63.0625 286.59 -63.0625 285.93 -63.0625 285.25 C-63.805 285.12625 -64.5475 285.0025 -65.3125 284.875 C-67.86391485 284.29513299 -69.7892573 283.51291261 -72.0625 282.25 C-72.0625 281.59 -72.0625 280.93 -72.0625 280.25 C-73.7125 279.92 -75.3625 279.59 -77.0625 279.25 C-77.0625 278.59 -77.0625 277.93 -77.0625 277.25 C-77.805 277.12625 -78.5475 277.0025 -79.3125 276.875 C-81.86391485 276.29513299 -83.7892573 275.51291261 -86.0625 274.25 C-86.0625 273.59 -86.0625 272.93 -86.0625 272.25 C-87.7125 271.92 -89.3625 271.59 -91.0625 271.25 C-91.0625 270.59 -91.0625 269.93 -91.0625 269.25 C-91.619375 269.12625 -92.17625 269.0025 -92.75 268.875 C-95.28364364 268.19023145 -97.64171032 267.25866237 -100.0625 266.25 C-100.0625 265.59 -100.0625 264.93 -100.0625 264.25 C-101.7125 263.92 -103.3625 263.59 -105.0625 263.25 C-105.0625 262.59 -105.0625 261.93 -105.0625 261.25 C-106.3825 261.25 -107.7025 261.25 -109.0625 261.25 C-109.0625 260.59 -109.0625 259.93 -109.0625 259.25 C-110.7125 258.92 -112.3625 258.59 -114.0625 258.25 C-114.0625 257.59 -114.0625 256.93 -114.0625 256.25 C-115.0525 256.25 -116.0425 256.25 -117.0625 256.25 C-117.0625 255.59 -117.0625 254.93 -117.0625 254.25 C-119.0425 253.92 -121.0225 253.59 -123.0625 253.25 C-123.0625 252.59 -123.0625 251.93 -123.0625 251.25 C-124.7125 250.92 -126.3625 250.59 -128.0625 250.25 C-128.0625 249.59 -128.0625 248.93 -128.0625 248.25 C-128.7225 248.25 -129.3825 248.25 -130.0625 248.25 C-131.6875 246.875 -131.6875 246.875 -133.0625 245.25 C-133.0625 244.59 -133.0625 243.93 -133.0625 243.25 C-133.7225 243.25 -134.3825 243.25 -135.0625 243.25 C-137.10419485 240.34451118 -138.0625 238.84857954 -138.0625 235.25 C-138.7225 235.25 -139.3825 235.25 -140.0625 235.25 C-141.99625008 227.4683361 -142.34844214 220.05910826 -142.32128906 212.06445312 C-142.3247937 210.7818309 -142.32829834 209.49920868 -142.33190918 208.17771912 C-142.34095785 204.68804255 -142.3375203 201.19848541 -142.33115101 197.70880699 C-142.32605174 194.03930742 -142.33079329 190.3698174 -142.33392334 186.70031738 C-142.33755162 180.54059024 -142.33279388 174.38091122 -142.32324219 168.22119141 C-142.31235982 161.12181316 -142.31588621 154.02254984 -142.326895 146.92317438 C-142.33600043 140.8039612 -142.33723729 134.68478241 -142.33201766 128.56556463 C-142.3289158 124.92125919 -142.32843913 121.27700758 -142.33509064 117.63270569 C-142.34199444 113.56691799 -142.3323984 109.50132527 -142.32128906 105.43554688 C-142.32533752 104.24356186 -142.32938599 103.05157684 -142.33355713 101.82347107 C-142.27256138 89.72763245 -140.96526751 80.21017098 -132.18359375 71.35546875 C-127.57816159 67.25 -127.57816159 67.25 -125.0625 67.25 C-125.0625 66.59 -125.0625 65.93 -125.0625 65.25 C-122.0925 64.755 -122.0925 64.755 -119.0625 64.25 C-119.0625 63.59 -119.0625 62.93 -119.0625 62.25 C-113.3125 59.25 -113.3125 59.25 -111.0625 59.25 C-111.0625 58.59 -111.0625 57.93 -111.0625 57.25 C-105.4375 54.25 -105.4375 54.25 -102.0625 54.25 C-102.0625 53.59 -102.0625 52.93 -102.0625 52.25 C-100.2960343 51.2423048 -98.52416177 50.24408286 -96.75 49.25 C-95.76386719 48.693125 -94.77773437 48.13625 -93.76171875 47.5625 C-91.0625 46.25 -91.0625 46.25 -88.0625 46.25 C-88.0625 45.59 -88.0625 44.93 -88.0625 44.25 C-85.5875 43.755 -85.5875 43.755 -83.0625 43.25 C-83.0625 42.59 -83.0625 41.93 -83.0625 41.25 C-82.0725 41.25 -81.0825 41.25 -80.0625 41.25 C-80.0625 40.59 -80.0625 39.93 -80.0625 39.25 C-78.48175436 38.43247697 -76.89778777 37.62118003 -75.3125 36.8125 C-74.43078125 36.36003906 -73.5490625 35.90757813 -72.640625 35.44140625 C-70.42051434 34.41544602 -68.44805381 33.73491397 -66.0625 33.25 C-66.0625 32.59 -66.0625 31.93 -66.0625 31.25 C-60.4375 28.25 -60.4375 28.25 -57.0625 28.25 C-57.0625 27.59 -57.0625 26.93 -57.0625 26.25 C-55.4125 25.92 -53.7625 25.59 -52.0625 25.25 C-52.0625 24.59 -52.0625 23.93 -52.0625 23.25 C-51.51980469 22.98445313 -50.97710937 22.71890625 -50.41796875 22.4453125 C-49.70253906 22.09210937 -48.98710938 21.73890625 -48.25 21.375 C-47.54230469 21.02695312 -46.83460937 20.67890625 -46.10546875 20.3203125 C-43.85003582 19.1843514 -43.85003582 19.1843514 -41.0625 17.25 C-40.0725 17.25 -39.0825 17.25 -38.0625 17.25 C-38.0625 16.59 -38.0625 15.93 -38.0625 15.25 C-32.3125 12.25 -32.3125 12.25 -30.0625 12.25 C-30.0625 11.59 -30.0625 10.93 -30.0625 10.25 C-28.10664675 9.24515796 -26.14773763 8.24626195 -24.1875 7.25 C-22.55167969 6.4146875 -22.55167969 6.4146875 -20.8828125 5.5625 C-18.0625 4.25 -18.0625 4.25 -16.0625 4.25 C-16.0625 3.59 -16.0625 2.93 -16.0625 2.25 C-10.64618482 0.00138151 -5.76071202 -0.05056953 0 0 Z " fill="#E40E12" transform="translate(155.0625,-0.25)"/>
<path d="M0 0 C3.92765107 2.30536041 5.77318811 3.93818636 7.78125 8.015625 C8.42191406 8.65242188 9.06257813 9.28921875 9.72265625 9.9453125 C11.96461277 12.20003158 13.24108228 14.332647 14.71875 17.140625 C15.48058594 18.58308594 15.48058594 18.58308594 16.2578125 20.0546875 C17.01191406 21.52035156 17.01191406 21.52035156 17.78125 23.015625 C18.26335937 23.95148438 18.74546875 24.88734375 19.2421875 25.8515625 C22.59831461 32.46681882 22.59831461 32.46681882 23.78125 36.015625 C24.44125 36.61375 25.10125 37.211875 25.78125 37.828125 C28.25507713 40.53387343 28.31396616 42.44771815 28.78125 46.015625 C28.1828833 45.98944092 27.5845166 45.96325684 26.96801758 45.9362793 C8.16086397 44.84230593 8.16086397 44.84230593 -8.30859375 52.8125 C-10.11724853 54.79133455 -11.66493973 56.83242323 -13.21875 59.015625 C-14.40467287 60.49605643 -15.59220433 61.97520055 -16.78125 63.453125 C-24.12628674 72.92071994 -24.12628674 72.92071994 -28.21875 84.015625 C-28.87875 84.015625 -29.53875 84.015625 -30.21875 84.015625 C-30.87875 85.335625 -31.53875 86.655625 -32.21875 88.015625 C-32.87875 88.015625 -33.53875 88.015625 -34.21875 88.015625 C-34.363125 88.593125 -34.5075 89.170625 -34.65625 89.765625 C-35.17708333 91.84895833 -35.69791667 93.93229167 -36.21875 96.015625 C-36.87875 96.015625 -37.53875 96.015625 -38.21875 96.015625 C-38.87875 98.325625 -39.53875 100.635625 -40.21875 103.015625 C-40.87875 103.015625 -41.53875 103.015625 -42.21875 103.015625 C-42.363125 104.129375 -42.5075 105.243125 -42.65625 106.390625 C-43.21875 110.015625 -43.21875 110.015625 -44.21875 112.015625 C-44.87875 112.015625 -45.53875 112.015625 -46.21875 112.015625 C-46.87875 113.665625 -47.53875 115.315625 -48.21875 117.015625 C-48.87875 117.015625 -49.53875 117.015625 -50.21875 117.015625 C-50.46625 117.7375 -50.71375 118.459375 -50.96875 119.203125 C-53.32801832 124.51147873 -56.30209491 127.137583 -61.21875 130.015625 C-61.981875 130.881875 -62.745 131.748125 -63.53125 132.640625 C-68.85999079 137.34974477 -77.40218984 136.14618589 -84.21875 136.078125 C-85.08886719 136.07361328 -85.95898438 136.06910156 -86.85546875 136.06445312 C-88.97659293 136.0527986 -91.0976811 136.03486857 -93.21875 136.015625 C-92.88875 134.365625 -92.55875 132.715625 -92.21875 131.015625 C-91.55875 131.015625 -90.89875 131.015625 -90.21875 131.015625 C-89.97125 130.314375 -89.72375 129.613125 -89.46875 128.890625 C-87.6753095 124.76571186 -85.4031312 121.2000062 -82.21875 118.015625 C-81.66979483 116.72283558 -81.17401463 115.40680493 -80.71875 114.078125 C-79.76447231 111.30345889 -78.88671263 109.51756895 -77.21875 107.015625 C-76.55875 107.015625 -75.89875 107.015625 -75.21875 107.015625 C-74.55875 104.045625 -73.89875 101.075625 -73.21875 98.015625 C-72.55875 98.015625 -71.89875 98.015625 -71.21875 98.015625 C-71.115625 97.29632813 -71.0125 96.57703125 -70.90625 95.8359375 C-70.14393285 92.70870465 -68.94160625 90.59915381 -67.21875 87.890625 C-65.52204901 85.20690083 -64.22618074 83.03791722 -63.21875 80.015625 C-61.15625 79.328125 -61.15625 79.328125 -59.21875 79.015625 C-59.115625 78.314375 -59.0125 77.613125 -58.90625 76.890625 C-57.83833209 72.42478648 -55.75182228 68.81523341 -53.21875 65.015625 C-52.55875 65.015625 -51.89875 65.015625 -51.21875 65.015625 C-51.14785156 64.02691406 -51.07695313 63.03820312 -51.00390625 62.01953125 C-50.32945522 57.34763832 -48.13137925 53.90047043 -45.65625 49.953125 C-44.74391055 48.45366076 -43.83246514 46.9536522 -42.921875 45.453125 C-42.46619141 44.70933594 -42.01050781 43.96554688 -41.54101562 43.19921875 C-39.59627349 39.98766526 -37.74989886 36.72339087 -35.90625 33.453125 C-28.29595588 20.09283088 -28.29595588 20.09283088 -25.21875 17.015625 C-24.80625 15.984375 -24.39375 14.953125 -23.96875 13.890625 C-21.62740034 8.26667959 -18.36798694 3.51074635 -13.34375 0.015625 C-8.53102529 -1.52444691 -4.63737938 -2.05742888 0 0 Z " fill="#FEFAFA" transform="translate(156.21875,89.984375)"/>
<path d="M0 0 C3.22541035 2.36005636 3.84792231 3.34099668 4.75 7.25 C4.8325 8.1575 4.915 9.065 5 10 C5.66 10 6.32 10 7 10 C8.953125 13.41796875 10.90625 16.8359375 12.859375 20.25390625 C13.21161133 20.86862793 13.56384766 21.48334961 13.92675781 22.11669922 C14.65593797 23.39624784 15.37904313 24.67927365 16.09667969 25.96533203 C18.10591137 29.5882114 18.10591137 29.5882114 20.75 32.75 C22 34 22 34 22 37 C22.66 37 23.32 37 24 37 C24.12375 37.639375 24.2475 38.27875 24.375 38.9375 C24.58125 39.618125 24.7875 40.29875 25 41 C25.99 41.495 25.99 41.495 27 42 C27.6328125 44.06640625 27.6328125 44.06640625 28.125 46.5625 C28.29257813 47.38878906 28.46015625 48.21507812 28.6328125 49.06640625 C28.75398438 49.70449219 28.87515625 50.34257812 29 51 C6.0697267 52.05967887 6.0697267 52.05967887 -2.51171875 44.90625 C-6.61527356 40.48590371 -10 36.24555355 -10 30 C-10.66 30 -11.32 30 -12 30 C-12 29.01 -12 28.02 -12 27 C-12.66 27 -13.32 27 -14 27 C-16.125 25.125 -16.125 25.125 -18 23 C-18 22.34 -18 21.68 -18 21 C-18.66 21 -19.32 21 -20 21 C-20.73313104 19.03387584 -21.46624278 17.06774448 -22.19921875 15.1015625 C-22.82839764 13.45035157 -23.5001782 11.81536743 -24.1875 10.1875 C-25 8 -25 8 -25 5 C-25.66 5 -26.32 5 -27 5 C-29 2 -29 2 -29 -2 C-18.50020631 -4.8405239 -9.82184333 -5.20719299 0 0 Z " fill="#FEF7F6" transform="translate(203,175)"/>
<path d="M0 0 C0.77150391 -0.00386719 1.54300781 -0.00773437 2.33789062 -0.01171875 C8.05904908 -0.00172546 8.05904908 -0.00172546 10.3125 1.125 C10.3125 1.785 10.3125 2.445 10.3125 3.125 C11.055 3.3725 11.7975 3.62 12.5625 3.875 C18.55246024 6.5977092 20.3741631 11.09738961 23.078125 16.7890625 C24.45884949 19.40195252 26.15857356 21.12492545 28.3125 23.125 C28.64583333 24.45833333 28.97916667 25.79166667 29.3125 27.125 C29.910625 27.7025 30.50875 28.28 31.125 28.875 C34.07626718 31.9105891 35.5437256 35.3199055 37.3125 39.125 C37.68117187 39.785 38.04984375 40.445 38.4296875 41.125 C39.3125 43.125 39.3125 43.125 39.3125 47.125 C20.4653617 47.9039862 20.4653617 47.9039862 13.3125 43.125 C12.74273437 42.75117187 12.17296875 42.37734375 11.5859375 41.9921875 C8.15774956 39.44215608 6.1820091 36.60548184 4.2578125 32.89453125 C3.19239865 30.81882643 3.19239865 30.81882643 1.0625 27.875 C-0.6875 25.125 -0.6875 25.125 -0.6875 22.125 C-1.2959375 22.05667969 -1.904375 21.98835938 -2.53125 21.91796875 C-4.6875 21.125 -4.6875 21.125 -6.03125 19.05078125 C-6.4128125 18.18839844 -6.794375 17.32601562 -7.1875 16.4375 C-8.61214896 13.3456148 -9.99643644 10.50401493 -12 7.75 C-13.6875 5.125 -13.6875 5.125 -13.6875 1.125 C-9.10522827 -0.02742762 -4.69035433 -0.02386949 0 0 Z " fill="#FEF7F7" transform="translate(194.6875,75.875)"/>
<path d="M0 0 C0 3.41991098 -0.80837491 5.08125425 -2.3125 8.125 C-2.74175781 9.01445313 -3.17101562 9.90390625 -3.61328125 10.8203125 C-5 13 -5 13 -8 14 C-8.61968227 15.8704682 -8.61968227 15.8704682 -9 18 C-9.57575042 19.24334239 -10.19372623 20.46781338 -10.84765625 21.671875 C-11.20537109 22.33574219 -11.56308594 22.99960938 -11.93164062 23.68359375 C-12.49141602 24.70646484 -12.49141602 24.70646484 -13.0625 25.75 C-13.43955078 26.44738281 -13.81660156 27.14476562 -14.20507812 27.86328125 C-15.13273388 29.57768302 -16.06583454 31.28913661 -17 33 C-17.66 33 -18.32 33 -19 33 C-19.103125 33.556875 -19.20625 34.11375 -19.3125 34.6875 C-20.14011401 37.47129258 -21.37737752 39.59851873 -23 42 C-23.99 42.495 -23.99 42.495 -25 43 C-23.77990998 38.56330901 -21.95770173 35.13995796 -19.484375 31.328125 C-17.76732339 28.6350651 -16.16384587 25.88838447 -14.5625 23.125 C-11.42543194 17.71885439 -8.22801116 12.35219091 -5 7 C-4.48953125 6.12214844 -3.9790625 5.24429688 -3.453125 4.33984375 C-2 2 -2 2 0 0 Z " fill="#F18785" transform="translate(131,107)"/>
<path d="M0 0 C0.99 0.33 1.98 0.66 3 1 C3.33 2.65 3.66 4.3 4 6 C4.66 6 5.32 6 6 6 C6.12375 6.639375 6.2475 7.27875 6.375 7.9375 C6.58125 8.618125 6.7875 9.29875 7 10 C7.66 10.33 8.32 10.66 9 11 C9.6328125 13.06640625 9.6328125 13.06640625 10.125 15.5625 C10.29257813 16.38878906 10.46015625 17.21507812 10.6328125 18.06640625 C10.75398438 18.70449219 10.87515625 19.34257812 11 20 C8.4374282 20.02710123 5.87514635 20.04688771 3.3125 20.0625 C2.59126953 20.07087891 1.87003906 20.07925781 1.12695312 20.08789062 C-2.71555382 20.10543632 -6.26639526 19.93524221 -10 19 C-10 18.67 -10 18.34 -10 18 C-4.06 18 1.88 18 8 18 C7.34 16.02 6.68 14.04 6 12 C5.34 11.67 4.68 11.34 4 11 C3.3671875 8.93359375 3.3671875 8.93359375 2.875 6.4375 C2.70742187 5.61121094 2.53984375 4.78492188 2.3671875 3.93359375 C2.24601563 3.29550781 2.12484375 2.65742188 2 2 C1.34 2 0.68 2 0 2 C0 1.34 0 0.68 0 0 Z " fill="#F39898" transform="translate(221,206)"/>
<path d="M0 0 C0.66 0 1.32 0 2 0 C2 0.99 2 1.98 2 3 C5.16730012 2.88869202 8.33356026 2.7584174 11.5 2.625 C12.8303125 2.57859375 12.8303125 2.57859375 14.1875 2.53125 C19.72836176 2.28680022 24.66698933 1.53261755 30 0 C27.61885827 3.0756414 26.35852029 3.93654508 22.46875 4.625 C17.64655461 5.12027325 12.84255649 5.11085118 8 5.0625 C7.12988281 5.05798828 6.25976562 5.05347656 5.36328125 5.04882812 C3.24215707 5.0371736 1.1210689 5.01924357 -1 5 C-0.67 3.35 -0.34 1.7 0 0 Z " fill="#F5AFAE" transform="translate(64,221)"/>
<path d="M0 0 C1.5 1.3125 1.5 1.3125 3 3 C3 3.99 3 4.98 3 6 C1.77990234 5.76023438 1.77990234 5.76023438 0.53515625 5.515625 C-3.52833316 4.92293925 -7.46259202 4.77864565 -11.5625 4.75 C-12.6752832 4.7190625 -12.6752832 4.7190625 -13.81054688 4.6875 C-18.51351803 4.65399709 -21.02182073 5.30967198 -25 8 C-27.67578125 8.73046875 -27.67578125 8.73046875 -30.3125 9.1875 C-31.19550781 9.34605469 -32.07851562 9.50460938 -32.98828125 9.66796875 C-33.65214844 9.77753906 -34.31601563 9.88710937 -35 10 C-33.13705836 6.27411671 -28.83453022 5.45415586 -25.109375 4.046875 C-17.36013028 1.74137831 -6.70190228 1.43269924 1 4 C0.505 2.02 0.505 2.02 0 0 Z " fill="#F2908E" transform="translate(184,132)"/>
<path d="M0 0 C1.15725586 -0.01836914 1.15725586 -0.01836914 2.33789062 -0.03710938 C4.33082707 -0.04233104 6.32333338 0.0648659 8.3125 0.1875 C8.9725 0.8475 9.6325 1.5075 10.3125 2.1875 C9.20390625 2.17589844 8.0953125 2.16429688 6.953125 2.15234375 C5.48958502 2.14296208 4.02604322 2.13386229 2.5625 2.125 C1.83289063 2.11662109 1.10328125 2.10824219 0.3515625 2.09960938 C-3.17420558 2.08358316 -6.29784916 2.23457287 -9.6875 3.1875 C-10.0175 4.5075 -10.3475 5.8275 -10.6875 7.1875 C-10.0275 7.1875 -9.3675 7.1875 -8.6875 7.1875 C-8.6875 8.1775 -8.6875 9.1675 -8.6875 10.1875 C-8.0275 10.1875 -7.3675 10.1875 -6.6875 10.1875 C-6.3575 12.1675 -6.0275 14.1475 -5.6875 16.1875 C-7.95557378 14.05245107 -9.69814481 11.87354821 -11.375 9.25 C-11.81199219 8.58097656 -12.24898437 7.91195312 -12.69921875 7.22265625 C-13.6875 5.1875 -13.6875 5.1875 -13.6875 1.1875 C-9.11071773 0.04558826 -4.68533009 0.00397399 0 0 Z " fill="#F39694" transform="translate(194.6875,75.8125)"/>
<path d="M0 0 C0.66 0.33 1.32 0.66 2 1 C2.40729228 3.32156597 2.74438677 5.6568787 3 8 C0.20807795 8.05380578 -2.5828141 8.09357669 -5.375 8.125 C-6.1690625 8.14175781 -6.963125 8.15851563 -7.78125 8.17578125 C-9.85492015 8.19335473 -11.92883241 8.10335168 -14 8 C-14.66 7.34 -15.32 6.68 -16 6 C-10.39 6 -4.78 6 1 6 C0.67 4.02 0.34 2.04 0 0 Z " fill="#F6B1AE" transform="translate(231,115)"/>
<path d="M0 0 C0.66 0.33 1.32 0.66 2 1 C0.68 3.97 -0.64 6.94 -2 10 C-2.66 10 -3.32 10 -4 10 C-4.185625 11.36125 -4.185625 11.36125 -4.375 12.75 C-4.93302349 15.65172215 -5.35643527 17.57790461 -7 20 C-9.125 21.25 -9.125 21.25 -11 22 C-10.67 20.68 -10.34 19.36 -10 18 C-9.34 18 -8.68 18 -8 18 C-7.896875 17.28070313 -7.79375 16.56140625 -7.6875 15.8203125 C-6.92518285 12.69307965 -5.72285625 10.58352881 -4 7.875 C-2.30329901 5.19127583 -1.00743074 3.02229222 0 0 Z " fill="#F39795" transform="translate(93,170)"/>
<path d="M0 0 C1.8871875 0.0309375 1.8871875 0.0309375 3.8125 0.0625 C3.8125 0.3925 3.8125 0.7225 3.8125 1.0625 C2.95978516 1.15724609 2.95978516 1.15724609 2.08984375 1.25390625 C-3.8858197 2.20163251 -6.83136411 4.03056954 -10.77734375 8.6015625 C-11.24269531 9.08367187 -11.70804688 9.56578125 -12.1875 10.0625 C-12.8475 10.0625 -13.5075 10.0625 -14.1875 10.0625 C-12.83594718 5.63923622 -10.98859562 3.65837018 -7.1875 1.0625 C-4.43671116 0.14557039 -2.82801087 -0.04636083 0 0 Z " fill="#F5AEAC" transform="translate(150.1875,88.9375)"/>
<path d="M0 0 C0.33 0 0.66 0 1 0 C1.3125 2.1875 1.3125 2.1875 1 5 C-2.50942811 9.57289118 -5.58297211 10.83162144 -11 12 C-9.71034824 10.62437146 -8.37310707 9.29233607 -7 8 C-6.34 8 -5.68 8 -5 8 C-4.731875 7.4225 -4.46375 6.845 -4.1875 6.25 C-2.97790559 3.95813691 -1.64363461 2.00094648 0 0 Z " fill="#ED6363" transform="translate(105,209)"/>
<path d="M0 0 C0 3.44139049 -0.83696602 5.07560315 -2.375 8.125 C-2.81585938 9.01445313 -3.25671875 9.90390625 -3.7109375 10.8203125 C-5 13 -5 13 -7 14 C-6.19347514 8.51563098 -4.28035402 3.66887488 0 0 Z " fill="#F5AAA8" transform="translate(131,107)"/>
<path d="M0 0 C1.98 0.99 1.98 0.99 4 2 C4 3.32 4 4.64 4 6 C4.66 6 5.32 6 6 6 C6.66 8.64 7.32 11.28 8 14 C7.34 13.67 6.68 13.34 6 13 C6 12.34 6 11.68 6 11 C5.34 11 4.68 11 4 11 C3.52014033 9.72942818 3.0411407 8.45853152 2.5625 7.1875 C2.16224609 6.12595703 2.16224609 6.12595703 1.75390625 5.04296875 C1.13774814 3.37327604 0.56280765 1.68842296 0 0 Z " fill="#F28E8C" transform="translate(179,185)"/>
<path d="M0 0 C-4.6154263 3.38464596 -9.48086654 4.08907506 -15 5 C-13.61147985 2.22295969 -12.03211518 1.96617263 -9.1875 0.8125 C-7.87845703 0.26529297 -7.87845703 0.26529297 -6.54296875 -0.29296875 C-3.85198664 -1.04115271 -2.584628 -0.9458895 0 0 Z " fill="#EB5656" transform="translate(164,137)"/>
<path d="M0 0 C0.8125 1.6875 0.8125 1.6875 1 4 C-1.3125 6.5625 -1.3125 6.5625 -4 9 C-4.66 9.99 -5.32 10.98 -6 12 C-4.99224039 6.67327064 -4.0152845 3.75623389 0 0 Z " fill="#ED6666" transform="translate(126,174)"/>
<path d="M0 0 C0.66 0 1.32 0 2 0 C2 0.99 2 1.98 2 3 C2.66 3 3.32 3 4 3 C4.66 5.64 5.32 8.28 6 11 C5.34 10.67 4.68 10.34 4 10 C4 9.34 4 8.68 4 8 C3.34 8 2.68 8 2 8 C1.34 5.36 0.68 2.72 0 0 Z " fill="#F08280" transform="translate(189,202)"/>
<path d="M0 0 C2.97246802 2.54782974 4.41535288 5.45340883 6 9 C6 9.66 6 10.32 6 11 C5.34 11 4.68 11 4 11 C0 4.5 0 4.5 0 0 Z " fill="#F6B5B3" transform="translate(165,99)"/>
<path d="M0 0 C0.66 0 1.32 0 2 0 C1.34 2.31 0.68 4.62 0 7 C-0.66 7 -1.32 7 -2 7 C-1.125 2.25 -1.125 2.25 0 0 Z " fill="#EC6161" transform="translate(118,186)"/>
<path d="M0 0 C0 3.60777515 -0.9904432 5.06295544 -3 8 C-3.99 8.495 -3.99 8.495 -5 9 C-3.90931332 5.22454612 -3.0916909 2.52956528 0 0 Z " fill="#F07F7D" transform="translate(134,160)"/>
</svg>
